<mxfile host="app.diagrams.net" agent="Mozilla/5.0 (Macintosh; Intel Mac OS X 10_15_7) AppleWebKit/537.36 (KHTML, like Gecko) Chrome/126.0.0.0 Safari/537.36" version="24.7.6">
  <diagram name="第 1 页" id="p9UogfbTqBMRZBkhfiBg">
    <mxGraphModel dx="928" dy="625" grid="0" gridSize="10" guides="1" tooltips="1" connect="1" arrows="1" fold="1" page="0" pageScale="1" pageWidth="827" pageHeight="1169" math="0" shadow="0">
      <root>
        <mxCell id="0" />
        <mxCell id="1" parent="0" />
        <mxCell id="oGr3gBzmV0MPGPRNmAmO-1" value="S6" style="ellipse;whiteSpace=wrap;html=1;aspect=fixed;fillColor=#d5e8d4;strokeColor=#82b366;" vertex="1" parent="1">
          <mxGeometry x="253" y="405" width="35" height="35" as="geometry" />
        </mxCell>
        <mxCell id="oGr3gBzmV0MPGPRNmAmO-2" style="edgeStyle=orthogonalEdgeStyle;rounded=0;orthogonalLoop=1;jettySize=auto;html=1;entryX=0;entryY=0.5;entryDx=0;entryDy=0;endArrow=none;endFill=0;" edge="1" parent="1" source="oGr3gBzmV0MPGPRNmAmO-4" target="oGr3gBzmV0MPGPRNmAmO-9">
          <mxGeometry relative="1" as="geometry" />
        </mxCell>
        <mxCell id="oGr3gBzmV0MPGPRNmAmO-3" style="edgeStyle=orthogonalEdgeStyle;rounded=0;orthogonalLoop=1;jettySize=auto;html=1;exitX=0.5;exitY=1;exitDx=0;exitDy=0;entryX=0.5;entryY=0;entryDx=0;entryDy=0;endArrow=none;endFill=0;" edge="1" parent="1" source="oGr3gBzmV0MPGPRNmAmO-4" target="oGr3gBzmV0MPGPRNmAmO-6">
          <mxGeometry relative="1" as="geometry" />
        </mxCell>
        <mxCell id="oGr3gBzmV0MPGPRNmAmO-4" value="S3" style="ellipse;whiteSpace=wrap;html=1;aspect=fixed;fillColor=#f8cecc;strokeColor=#b85450;" vertex="1" parent="1">
          <mxGeometry x="377" y="279" width="35" height="35" as="geometry" />
        </mxCell>
        <mxCell id="oGr3gBzmV0MPGPRNmAmO-5" style="edgeStyle=orthogonalEdgeStyle;rounded=0;orthogonalLoop=1;jettySize=auto;html=1;exitX=1;exitY=0.5;exitDx=0;exitDy=0;endArrow=none;endFill=0;" edge="1" parent="1" source="oGr3gBzmV0MPGPRNmAmO-6" target="oGr3gBzmV0MPGPRNmAmO-11">
          <mxGeometry relative="1" as="geometry" />
        </mxCell>
        <mxCell id="oGr3gBzmV0MPGPRNmAmO-6" value="S2" style="ellipse;whiteSpace=wrap;html=1;aspect=fixed;fillColor=#d5e8d4;strokeColor=#82b366;" vertex="1" parent="1">
          <mxGeometry x="377" y="405" width="35" height="35" as="geometry" />
        </mxCell>
        <mxCell id="oGr3gBzmV0MPGPRNmAmO-7" style="edgeStyle=orthogonalEdgeStyle;rounded=0;orthogonalLoop=1;jettySize=auto;html=1;exitX=0.5;exitY=1;exitDx=0;exitDy=0;entryX=0.5;entryY=0;entryDx=0;entryDy=0;endArrow=none;endFill=0;" edge="1" parent="1" source="oGr3gBzmV0MPGPRNmAmO-9" target="oGr3gBzmV0MPGPRNmAmO-11">
          <mxGeometry relative="1" as="geometry" />
        </mxCell>
        <mxCell id="oGr3gBzmV0MPGPRNmAmO-8" style="rounded=0;orthogonalLoop=1;jettySize=auto;html=1;exitX=0;exitY=1;exitDx=0;exitDy=0;entryX=1;entryY=0;entryDx=0;entryDy=0;endArrow=none;endFill=0;" edge="1" parent="1" source="oGr3gBzmV0MPGPRNmAmO-9" target="oGr3gBzmV0MPGPRNmAmO-6">
          <mxGeometry relative="1" as="geometry" />
        </mxCell>
        <mxCell id="oGr3gBzmV0MPGPRNmAmO-9" value="S1" style="ellipse;whiteSpace=wrap;html=1;aspect=fixed;fillColor=#dae8fc;strokeColor=#6c8ebf;" vertex="1" parent="1">
          <mxGeometry x="507" y="279" width="35" height="35" as="geometry" />
        </mxCell>
        <mxCell id="oGr3gBzmV0MPGPRNmAmO-10" style="edgeStyle=orthogonalEdgeStyle;rounded=0;orthogonalLoop=1;jettySize=auto;html=1;exitX=1;exitY=0.5;exitDx=0;exitDy=0;entryX=0;entryY=0.5;entryDx=0;entryDy=0;endArrow=none;endFill=0;" edge="1" parent="1" source="oGr3gBzmV0MPGPRNmAmO-11" target="oGr3gBzmV0MPGPRNmAmO-18">
          <mxGeometry relative="1" as="geometry" />
        </mxCell>
        <mxCell id="oGr3gBzmV0MPGPRNmAmO-11" value="S4" style="ellipse;whiteSpace=wrap;html=1;aspect=fixed;fillColor=#f8cecc;strokeColor=#b85450;" vertex="1" parent="1">
          <mxGeometry x="507" y="405" width="35" height="35" as="geometry" />
        </mxCell>
        <mxCell id="oGr3gBzmV0MPGPRNmAmO-12" style="rounded=0;orthogonalLoop=1;jettySize=auto;html=1;exitX=0;exitY=1;exitDx=0;exitDy=0;entryX=1;entryY=0;entryDx=0;entryDy=0;endArrow=none;endFill=0;" edge="1" parent="1" source="oGr3gBzmV0MPGPRNmAmO-13" target="oGr3gBzmV0MPGPRNmAmO-11">
          <mxGeometry relative="1" as="geometry" />
        </mxCell>
        <mxCell id="oGr3gBzmV0MPGPRNmAmO-13" value="S5" style="ellipse;whiteSpace=wrap;html=1;aspect=fixed;fillColor=#dae8fc;strokeColor=#6c8ebf;" vertex="1" parent="1">
          <mxGeometry x="620" y="279" width="35" height="35" as="geometry" />
        </mxCell>
        <mxCell id="oGr3gBzmV0MPGPRNmAmO-14" style="rounded=0;orthogonalLoop=1;jettySize=auto;html=1;exitX=0;exitY=1;exitDx=0;exitDy=0;entryX=1;entryY=0;entryDx=0;entryDy=0;endArrow=none;endFill=0;" edge="1" parent="1" source="oGr3gBzmV0MPGPRNmAmO-16" target="oGr3gBzmV0MPGPRNmAmO-18">
          <mxGeometry relative="1" as="geometry" />
        </mxCell>
        <mxCell id="oGr3gBzmV0MPGPRNmAmO-15" style="rounded=0;orthogonalLoop=1;jettySize=auto;html=1;exitX=1;exitY=1;exitDx=0;exitDy=0;entryX=0;entryY=0;entryDx=0;entryDy=0;endArrow=none;endFill=0;" edge="1" parent="1" source="oGr3gBzmV0MPGPRNmAmO-16" target="oGr3gBzmV0MPGPRNmAmO-19">
          <mxGeometry relative="1" as="geometry" />
        </mxCell>
        <mxCell id="oGr3gBzmV0MPGPRNmAmO-16" value="r3" style="ellipse;whiteSpace=wrap;html=1;aspect=fixed;fillColor=#f8cecc;strokeColor=#b85450;" vertex="1" parent="1">
          <mxGeometry x="715" y="279" width="35" height="35" as="geometry" />
        </mxCell>
        <mxCell id="oGr3gBzmV0MPGPRNmAmO-17" style="edgeStyle=orthogonalEdgeStyle;rounded=0;orthogonalLoop=1;jettySize=auto;html=1;exitX=1;exitY=0.5;exitDx=0;exitDy=0;entryX=0;entryY=0.5;entryDx=0;entryDy=0;endArrow=none;endFill=0;" edge="1" parent="1" source="oGr3gBzmV0MPGPRNmAmO-18" target="oGr3gBzmV0MPGPRNmAmO-19">
          <mxGeometry relative="1" as="geometry" />
        </mxCell>
        <mxCell id="oGr3gBzmV0MPGPRNmAmO-18" value="r1" style="ellipse;whiteSpace=wrap;html=1;aspect=fixed;fillColor=#dae8fc;strokeColor=#6c8ebf;" vertex="1" parent="1">
          <mxGeometry x="640" y="405" width="35" height="35" as="geometry" />
        </mxCell>
        <mxCell id="oGr3gBzmV0MPGPRNmAmO-19" value="r2" style="ellipse;whiteSpace=wrap;html=1;aspect=fixed;fillColor=#d5e8d4;strokeColor=#82b366;" vertex="1" parent="1">
          <mxGeometry x="789" y="405" width="35" height="35" as="geometry" />
        </mxCell>
      </root>
    </mxGraphModel>
  </diagram>
</mxfile>
